<?xml version="1.0" encoding="UTF-8"?>
<svg id="Capa_2" data-name="Capa 2" xmlns="http://www.w3.org/2000/svg" viewBox="0 0 186.89 62.96">
  <defs>
    <style>
      .cls-1 {
        fill: #fff;
      }

      .cls-2 {
        fill: #ffbc00;
      }
    </style>
  </defs>
  <g id="Capa_1-2" data-name="Capa 1-2">
    <g>
      <path class="cls-1" d="m0,59.64c0-1.94,1.58-3.32,3.51-3.32.85,0,1.65.3,2.29.85l-.6.69c-.45-.4-1.04-.63-1.69-.63-1.43,0-2.6.98-2.6,2.41s1.16,2.41,2.6,2.41c.65,0,1.24-.23,1.69-.62l.6.68c-.64.55-1.44.85-2.29.85C1.57,62.96,0,61.57,0,59.64Z"/>
      <path class="cls-1" d="m21.87,56.41h3.09c1.19,0,2.17.73,2.17,1.85,0,1-.77,1.65-1.78,1.83l2.09,2.79h-1.15l-2.06-2.76h-1.39v2.76h-.96v-6.47h-.01Zm.97.92v1.87h2.12c.66,0,1.21-.33,1.21-.94s-.54-.92-1.21-.92h-2.12Z"/>
      <path class="cls-1" d="m43.04,56.41h5.49v.81h-4.56v1.94h4.22v.81h-4.22v2.09h4.56v.81h-5.49v-6.47h0Z"/>
      <path class="cls-1" d="m63.85,62.88l2.6-6.47h.98l2.6,6.47h-.99l-.69-1.84h-2.81l-.68,1.84h-1.01Zm1.99-2.65h2.21l-1.1-2.96-1.11,2.96Z"/>
      <path class="cls-1" d="m83.87,56.41h5.02v.83h-2.05v5.63h-.92v-5.63h-2.05s0-.83,0-.83Z"/>
      <path class="cls-1" d="m105.89,62.88h-.92v-6.47h.92v6.47Z"/>
      <path class="cls-1" d="m121.21,56.41h.99l2.28,5.23,2.25-5.23h1.01l-2.76,6.47h-1l-2.77-6.47Z"/>
      <path class="cls-1" d="m143.9,62.88h-.92v-6.47h.92v6.47Z"/>
      <path class="cls-1" d="m159.23,56.41h5.02v.83h-2.05v5.63h-.92v-5.63h-2.05v-.83Z"/>
      <path class="cls-1" d="m180.65,56.41l1.88,2.69,1.87-2.69h1.16l-2.6,3.71v2.75h-.92v-2.73l-2.64-3.73h1.26,0Z"/>
    </g>
    <path class="cls-2" d="m92.85,0c-11.97,0-21.67,9.7-21.67,21.67s9.7,21.67,21.67,21.67,21.67-9.7,21.67-21.67S104.81,0,92.85,0Zm-8.23,32.93h.01l-.14.39c-.07.19-.25.31-.45.31h-4.21c-.16,0-.31-.08-.4-.21-.09-.13-.11-.3-.05-.45l10.96-27.3c.07-.18.25-.3.45-.3h4.12l-10.29,27.56Zm21.66.49c-.09.13-.24.21-.4.21h-4.17c-.2,0-.38-.12-.45-.31l-6.25-16.8,2.28-6.1,9.05,22.54c.06.15.04.32-.05.45h-.01Z"/>
  </g>
</svg>