<?xml version="1.0" encoding="UTF-8"?>
<svg id="Capa_2" data-name="Capa 2" xmlns="http://www.w3.org/2000/svg" viewBox="0 0 186.89 62.96">
  <defs>
    <style>
      .cls-1 {
        fill: #fff;
      }

      .cls-2 {
        fill: #ff3c00;
      }
    </style>
  </defs>
  <g id="Capa_1-2" data-name="Capa 1-2">
    <path class="cls-2" d="m93.51-.09c-11.97,0-21.67,9.7-21.67,21.67s9.7,21.67,21.67,21.67,21.67-9.7,21.67-21.67S105.48-.09,93.51-.09Zm-8.23,32.93h0l-.14.39c-.07.19-.25.31-.45.31h-4.21c-.16,0-.31-.08-.4-.21-.09-.13-.11-.3-.05-.45l10.96-27.3c.07-.18.25-.3.45-.3h4.12l-10.29,27.56Zm21.66.49c-.09.13-.24.21-.4.21h-4.17c-.2,0-.38-.12-.45-.31l-6.25-16.8,2.28-6.1,9.05,22.54c.06.15.04.32-.05.45h0Z"/>
    <g>
      <path class="cls-1" d="m51.16,56.47h5v.81h-4.08v1.95h3.72v.8h-3.72v2.9h-.92v-6.47h0Z"/>
      <path class="cls-1" d="m72.41,62.94h-.92v-6.47h.92v6.47Z"/>
      <path class="cls-1" d="m92.59,62.94h-4.12v-6.47h.92v5.63h3.2v.83h0Z"/>
      <path class="cls-1" d="m110.1,56.47l1.63,5.25,1.62-5.25h1.44v6.47h-.93v-5.25l-1.64,5.25h-.97l-1.64-5.25v5.25h-.93v-6.47h1.44-.02Z"/>
      <path class="cls-1" d="m131.3,61c.42.63,1.26,1.11,2.04,1.11s1.48-.42,1.48-.93c0-.38-.37-.58-1.6-.86-1.14-.26-2.46-.54-2.46-2.04,0-.45.35-1.89,2.43-1.89.87,0,1.75.39,2.4.93l-.6.7c-.54-.42-1.06-.7-1.86-.7-1.02,0-1.37.46-1.37,1.1,0,.54.71.73,1.52.95,1.12.3,2.44.65,2.44,1.84s-1.22,1.83-2.45,1.83c-1.12,0-2.16-.64-2.76-1.54l.78-.49h0Z"/>
    </g>
  </g>
</svg>