<?xml version="1.0" encoding="UTF-8"?>
<svg id="Capa_2" data-name="Capa 2" xmlns="http://www.w3.org/2000/svg" viewBox="0 0 186.89 62.96">
  <defs>
    <style>
      .cls-1 {
        fill: #fff;
      }

      .cls-2 {
        fill: #00f9ff;
      }
    </style>
  </defs>
  <g id="Capa_1-2" data-name="Capa 1-2">
    <path class="cls-2" d="m93.44-.08c-11.97,0-21.67,9.7-21.67,21.67s9.7,21.67,21.67,21.67,21.67-9.7,21.67-21.67S105.41-.08,93.44-.08Zm-8.23,32.93h.01l-.14.39c-.07.19-.25.31-.45.31h-4.21c-.16,0-.31-.08-.4-.21-.09-.13-.11-.3-.05-.45l10.95-27.3c.07-.18.25-.3.45-.3h4.12l-10.29,27.56h0Zm21.66.49c-.09.13-.24.21-.4.21h-4.17c-.2,0-.38-.12-.45-.31l-6.25-16.8,2.28-6.1,9.05,22.54c.06.15.04.32-.05.45h0Z"/>
    <g>
      <path class="cls-1" d="m79.94,63.02v-6.43h2.94c1.14,0,2.08.93,2.08,2.08s-.94,2.08-2.08,2.08h-2.02v2.28h-.92Zm.92-3.21h2.02c.63,0,1.16-.51,1.16-1.15s-.52-1.15-1.16-1.15h-2.02v2.3Z"/>
      <path class="cls-1" d="m101.27,56.59h3.08c1.19,0,2.16.73,2.16,1.84,0,.99-.76,1.64-1.77,1.82l2.08,2.77h-1.15l-2.05-2.75h-1.39v2.75h-.96s0-6.43,0-6.43Zm.96.92v1.86h2.11c.66,0,1.2-.33,1.2-.94s-.53-.92-1.2-.92c0,0-2.11,0-2.11,0Z"/>
    </g>
  </g>
</svg>