<?xml version="1.0" encoding="UTF-8"?>
<svg id="Capa_2" data-name="Capa 2" xmlns="http://www.w3.org/2000/svg" viewBox="0 0 186.89 62.96">
  <defs>
    <style>
      .cls-1 {
        fill: #fff;
      }

      .cls-2 {
        fill: #ff0068;
      }
    </style>
  </defs>
  <g id="Capa_1-2" data-name="Capa 1-2">
    <path class="cls-2" d="m92.14-.11c-11.97,0-21.67,9.7-21.67,21.67s9.7,21.67,21.67,21.67,21.67-9.7,21.67-21.67S104.11-.11,92.14-.11Zm-8.17,32.93h.01l-.14.39c-.07.19-.25.31-.45.31h-4.21c-.16,0-.31-.08-.4-.21-.09-.13-.11-.3-.05-.45l10.96-27.3c.07-.18.25-.3.45-.3h4.12l-10.29,27.56Zm21.66.49c-.09.13-.24.21-.4.21h-4.17c-.2,0-.38-.12-.45-.31l-6.25-16.8,2.28-6.1,9.05,22.54c.06.15.04.32-.05.45h-.01Z"/>
    <g>
      <path class="cls-1" d="m14.03,61.03c.42.62,1.25,1.1,2.03,1.1s1.47-.42,1.47-.93c0-.38-.37-.58-1.59-.85-1.13-.26-2.44-.53-2.44-2.03,0-.45.35-1.88,2.42-1.88.86,0,1.74.39,2.39.93l-.6.7c-.53-.42-1.06-.7-1.85-.7-1.01,0-1.36.46-1.36,1.09,0,.54.71.73,1.52.95,1.11.3,2.43.64,2.43,1.83s-1.21,1.82-2.43,1.82c-1.11,0-2.15-.63-2.75-1.53l.77-.49h-.01Z"/>
      <path class="cls-1" d="m34.57,56.52h5v.83h-2.04v5.6h-.92v-5.6h-2.04s0-.83,0-.83Z"/>
      <path class="cls-1" d="m56.29,56.52h3.08c1.19,0,2.16.73,2.16,1.84,0,.99-.76,1.64-1.77,1.82l2.08,2.77h-1.15l-2.05-2.75h-1.39v2.75h-.96s0-6.43,0-6.43Zm.96.92v1.86h2.11c.66,0,1.2-.33,1.2-.94s-.53-.92-1.2-.92c0,0-2.11,0-2.11,0Z"/>
      <path class="cls-1" d="m78.09,62.96l2.58-6.43h.97l2.58,6.43h-.98l-.69-1.83h-2.79l-.68,1.83h-.99Zm1.98-2.64h2.2l-1.09-2.94-1.1,2.94h-.01Z"/>
      <path class="cls-1" d="m99.11,56.52h5v.83h-2.04v5.6h-.92v-5.6h-2.04v-.83Z"/>
      <path class="cls-1" d="m121.01,56.52h5.46v.81h-4.54v1.93h4.2v.81h-4.2v2.08h4.54v.81h-5.46v-6.43h0Z"/>
      <path class="cls-1" d="m146.1,56.46c1.01,0,2.04.46,2.66,1.25l-.7.57c-.47-.55-1.17-.91-1.95-.91-1.39,0-2.53,1.05-2.53,2.42s1.07,2.35,2.56,2.35c.85,0,2.09-.56,2.14-1.84h-2.04v-.85h3.03l.02.33c.09,1.6-1.17,3.27-3.11,3.27s-3.5-1.38-3.5-3.23,1.52-3.35,3.41-3.35h0Z"/>
      <path class="cls-1" d="m166.14,56.52l1.87,2.67,1.86-2.67h1.16l-2.59,3.69v2.74h-.92v-2.72l-2.63-3.71s1.25,0,1.25,0Z"/>
    </g>
  </g>
</svg>