<?xml version="1.0" encoding="UTF-8"?>
<svg id="Capa_1" data-name="Capa 1" xmlns="http://www.w3.org/2000/svg" viewBox="0 0 10 10">
  <defs>
    <style>
      .cls-1 {
        fill: #fff;
      }
    </style>
  </defs>
  <path class="cls-1" d="m10,5C10,2.24,7.76,0,5,0S0,2.24,0,5s2.24,5,5,5,5-2.24,5-5Zm-7.6-1.9h0l-.09-.03s-.08-.05-.08-.1v-.97s.02-.07.05-.09.07-.03.1-.01l6.3,2.53s.07.05.07.1v.95S2.4,3.1,2.4,3.1Zm-.11,5s-.05-.05-.05-.09v-.96s.03-.09.08-.1l3.88-1.44,1.41.53-5.2,2.09s-.09,0-.12-.01Z"/>
</svg>