<?xml version="1.0" encoding="UTF-8"?>
<svg id="Capa_1" data-name="Capa 1" xmlns="http://www.w3.org/2000/svg" viewBox="0 0 20 20">
  <defs>
    <style>
      .cls-1 {
        fill: #fff;
      }
    </style>
  </defs>
  <path class="cls-1" d="m20,10C20,4.47,15.53,0,10,0S0,4.47,0,10s4.47,10,10,10,10-4.47,10-10Zm-15.2-3.8h0l-.18-.05c-.08-.03-.15-.11-.15-.21v-1.94c0-.07.04-.14.1-.18s.14-.05.21-.03l12.6,5.06c.08.03.14.11.14.21v1.9S4.8,6.2,4.8,6.2Zm-.22,10c-.05-.04-.1-.11-.1-.18v-1.93c0-.1.05-.18.15-.21l7.76-2.89,2.82,1.05-10.4,4.17c-.1.03-.18.01-.23-.03Z"/>
</svg>