<?xml version="1.0" encoding="UTF-8"?>
<svg id="Capa_2" data-name="Capa 2" xmlns="http://www.w3.org/2000/svg" viewBox="0 0 95.3 91.11">
  <defs>
    <style>
      .cls-1 {
        fill: #fff;
      }
    </style>
  </defs>
  <g id="Capa_2-2" data-name="Capa 2">
    <path class="cls-1" d="m2.4,17.7h0l-1.3-.4C.5,17.1,0,16.5,0,15.8V1.6C0,1.1.3.6.7.3,1.1,0,1.7-.1,2.2.1l92.1,37c.6.2,1,.8,1,1.5v13.9S2.4,17.7,2.4,17.7ZM.8,90.8c-.4-.3-.7-.8-.7-1.3v-14.1c0-.7.4-1.3,1.1-1.5l56.7-21.1,20.6,7.7L2.5,91c-.7.2-1.3.1-1.7-.2Z"/>
  </g>
</svg>