<?xml version="1.0" encoding="UTF-8"?>
<svg id="Capa_2" data-name="Capa 2" xmlns="http://www.w3.org/2000/svg" viewBox="0 0 146.2 146.2">
  <defs>
    <style>
      .cls-1 {
        fill: #fff;
      }
    </style>
  </defs>
  <g id="Capa_1-2" data-name="Capa 1">
    <circle class="cls-1" cx="73.1" cy="73.1" r="73.1"/>
    <path d="m73.1,0C32.7,0,0,32.7,0,73.1s32.7,73.1,73.1,73.1,73.1-32.7,73.1-73.1S113.5,0,73.1,0Zm-27.8,111.1h0l-.4,1.3c-.2.6-.8,1.1-1.5,1.1h-14.2c-.5,0-1-.3-1.3-.7s-.4-1-.2-1.5L64.7,19.2c.2-.6.8-1,1.5-1h13.9l-34.8,92.9Zm73.1,1.6c-.3.4-.8.7-1.3.7h-14.1c-.7,0-1.3-.4-1.5-1.1l-21.1-56.7,7.7-20.6,30.5,76c.2.7.1,1.3-.2,1.7Z"/>
  </g>
</svg>