<?xml version="1.0" encoding="UTF-8"?>
<svg id="Capa_2" data-name="Capa 2" xmlns="http://www.w3.org/2000/svg" viewBox="0 0 95.3 91.11">
  <defs>
    <style>
      .cls-1 {
        fill: #fff;
      }
    </style>
  </defs>
  <g id="Capa_2-2" data-name="Capa 2">
    <path class="cls-1" d="m0,52.5v-13.9c0-.7.4-1.3,1-1.5L93.1.1c.5-.2,1.1-.1,1.5.2.4.3.7.8.7,1.3v14.2c0,.7-.5,1.3-1.1,1.5l-1.3.4h0S0,52.5,0,52.5Zm92.8,38.5L16.8,60.5l20.6-7.7,56.7,21.1c.7.2,1.1.8,1.1,1.5v14.1c0,.5-.3,1-.7,1.3-.4.3-1,.4-1.7.2Z"/>
  </g>
</svg>