<?xml version="1.0" encoding="UTF-8"?>
<svg id="Capa_1" data-name="Capa 1" xmlns="http://www.w3.org/2000/svg" viewBox="0 0 20 20">
  <defs>
    <style>
      .cls-1 {
        fill: #fff;
      }
    </style>
  </defs>
  <path class="cls-1" d="m0,10c0,5.53,4.47,10,10,10s10-4.47,10-10S15.53,0,10,0,0,4.47,0,10Zm15.2,3.8h0l.18.05c.08.03.15.11.15.21v1.94c0,.07-.04.14-.1.18s-.14.05-.21.03L2.63,11.15c-.08-.03-.14-.11-.14-.21v-1.9l12.71,4.76Zm.22-10c.05.04.1.11.1.18v1.93c0,.1-.05.18-.15.21l-7.76,2.89-2.82-1.05L15.18,3.78c.1-.03.18-.01.23.03Z"/>
</svg>