<?xml version="1.0" encoding="UTF-8"?>
<svg id="Capa_1" data-name="Capa 1" xmlns="http://www.w3.org/2000/svg" viewBox="0 0 740.6 146.2">
  <defs>
    <style>
      .cls-1 {
        fill: #fff;
      }
    </style>
  </defs>
  <path class="cls-1" d="m739.7,32.8c.6-.3,1-.8,1-1.5v-11.6c0-.9-.7-1.6-1.6-1.6h-78.2c-.9,0-1.6.7-1.6,1.6v.7h0v84.4h0v7c0,.9.7,1.6,1.6,1.6h78.2c.9,0,1.6-.7,1.6-1.6v-11.6c0-.9-.7-1.6-1.6-1.6h-62.7v-26.5h57.8c.9,0,1.6-.7,1.6-1.6v-11.6c0-.9-.7-1.6-1.6-1.6h-57.8v-24.5h63.3Z"/>
  <g>
    <path class="cls-1" d="m499.3,19.1c-.3-.6-.8-1-1.5-1h-14.1c-.5,0-1.1.3-1.4.7-.3.5-.4,1-.1,1.5l31.6,73.7,9-21-23.5-53.9Z"/>
    <path class="cls-1" d="m576.7,18.1h-14.3c-.6,0-1.2.4-1.5,1l-30.6,71-.1-.2-9.1,21.1.6,1.4c.3.6.8,1,1.5,1h14.2c.7,0,1.2-.4,1.5-1l39.3-92.1c.2-.5.2-1.1-.1-1.5-.3-.4-.8-.7-1.4-.7Z"/>
  </g>
  <path class="cls-1" d="m370.5,0c-40.4,0-73.1,32.7-73.1,73.1s32.7,73.1,73.1,73.1,73.1-32.7,73.1-73.1S410.9,0,370.5,0Zm-27.8,111.1h0l-.4,1.3c-.2.6-.8,1.1-1.5,1.1h-14.2c-.5,0-1-.3-1.3-.7s-.4-1-.2-1.5l37-92.1c.2-.6.8-1,1.5-1h13.9l-34.8,92.9Zm73.1,1.6c-.3.4-.8.7-1.3.7h-14.1c-.7,0-1.3-.4-1.5-1.1l-21.1-56.7,7.7-20.6,30.5,76c.2.7.1,1.3-.2,1.7Z"/>
  <path class="cls-1" d="m67.8,61.9c4.6-4.8,7.2-9.4,7.2-16.8,0-15.7-12.4-27-29.5-27H1.6c-.9,0-1.6.7-1.6,1.6v.7h0v84.4h0v7c0,.9.7,1.6,1.6,1.6h48c16.3,0,29.7-13.1,29.7-29.3-.1-8.8-4-16.4-11.5-22.2Zm-9.2-16.8c0,2.5-.9,10.5-13.1,10.5h-28.8v-21.1h28.8c6.4,0,13.1,2.8,13.1,10.6Zm-9,51.9H16.7v-25h33c7.5,0,13.1,5.2,13.1,12.2s-5.8,12.8-13.2,12.8Z"/>
  <path class="cls-1" d="m217.8,73.2c6.6-1.5,12.2-4.5,16.4-8.6,5.1-4.9,7.8-11.4,7.8-18.6,0-8-3.4-15.3-9.7-20.4-6-4.9-14.1-7.6-22.9-7.6h-44.1c-.9,0-1.6.7-1.6,1.6v.7h0v84.4h0v7c0,.9.7,1.6,1.6,1.6h13.7c.9,0,1.6-.7,1.6-1.6v-7h.2v-30.7h17.3l28.9,38.7c.3.4.8.7,1.3.7h16.4c.6,0,1.2-.3,1.5-.9.3-.6.2-1.2-.2-1.7l-28.2-37.6Zm-36.9-15.4v-23.3h28.6c11.5,0,15.6,6,15.6,11.5s-4.1,11.8-15.6,11.8c0,0-28.6,0-28.6,0Z"/>
</svg>