<?xml version="1.0" encoding="utf-8"?>
<!-- Generator: $$$/GeneralStr/196=Adobe Illustrator 27.6.0, SVG Export Plug-In . SVG Version: 6.00 Build 0)  -->
<svg version="1.1" id="Capa_1" xmlns="http://www.w3.org/2000/svg" xmlns:xlink="http://www.w3.org/1999/xlink" x="0px" y="0px"
	 viewBox="0 0 1000 261.8" style="enable-background:new 0 0 1000 261.8;" xml:space="preserve">
<style type="text/css">
	.st0{fill:#FFFFFF;}
</style>
<g>
	<path class="st0" d="M869.4,90.6c0.6-0.3,1-0.8,1-1.5V77.5c0-0.9-0.7-1.6-1.6-1.6h-78.2c-0.9,0-1.6,0.7-1.6,1.6v0.7h0v84.4h0v7
		c0,0.9,0.7,1.6,1.6,1.6h78.2c0.9,0,1.6-0.7,1.6-1.6V158c0-0.9-0.7-1.6-1.6-1.6h-62.7v-26.5h57.8c0.9,0,1.6-0.7,1.6-1.6v-11.6
		c0-0.9-0.7-1.6-1.6-1.6h-57.8V90.6H869.4z"/>
	<g>
		<path class="st0" d="M629,76.9c-0.3-0.6-0.8-1-1.5-1h-14.1c-0.5,0-1.1,0.3-1.4,0.7c-0.3,0.5-0.4,1-0.1,1.5l31.6,73.7l9-21
			L629,76.9z"/>
		<path class="st0" d="M706.4,75.9h-14.3c-0.6,0-1.2,0.4-1.5,1l-30.6,71l-0.1-0.2l-9.1,21.1l0.6,1.4c0.3,0.6,0.8,1,1.5,1h14.2
			c0.7,0,1.2-0.4,1.5-1l39.3-92.1c0.2-0.5,0.2-1.1-0.1-1.5C707.5,76.2,707,75.9,706.4,75.9z"/>
	</g>
	<path class="st0" d="M500.2,57.8c-40.4,0-73.1,32.7-73.1,73.1s32.7,73.1,73.1,73.1s73.1-32.7,73.1-73.1S540.6,57.8,500.2,57.8z
		 M472.4,168.9L472.4,168.9l-0.4,1.3c-0.2,0.6-0.8,1.1-1.5,1.1h-14.2c-0.5,0-1-0.3-1.3-0.7s-0.4-1-0.2-1.5l37-92.1
		c0.2-0.6,0.8-1,1.5-1h13.9L472.4,168.9z M545.5,170.5c-0.3,0.4-0.8,0.7-1.3,0.7h-14.1c-0.7,0-1.3-0.4-1.5-1.1l-21.1-56.7l7.7-20.6
		l30.5,76C545.9,169.5,545.8,170.1,545.5,170.5z"/>
	<path class="st0" d="M197.5,119.7c4.6-4.8,7.2-9.4,7.2-16.8c0-15.7-12.4-27-29.5-27h-43.9c-0.9,0-1.6,0.7-1.6,1.6v0.7h0v84.4h0v7
		c0,0.9,0.7,1.6,1.6,1.6h48c16.3,0,29.7-13.1,29.7-29.3C208.9,133.1,205,125.5,197.5,119.7z M188.3,102.9c0,2.5-0.9,10.5-13.1,10.5
		h-28.8V92.3h28.8C181.6,92.3,188.3,95.1,188.3,102.9z M179.3,154.8h-32.9v-25h33c7.5,0,13.1,5.2,13.1,12.2
		C192.5,149.2,186.7,154.8,179.3,154.8z"/>
	<path class="st0" d="M347.5,131c6.6-1.5,12.2-4.5,16.4-8.6c5.1-4.9,7.8-11.4,7.8-18.6c0-8-3.4-15.3-9.7-20.4
		c-6-4.9-14.1-7.6-22.9-7.6h-44.1c-0.9,0-1.6,0.7-1.6,1.6v0.7h0v84.4h0v7c0,0.9,0.7,1.6,1.6,1.6h13.7c0.9,0,1.6-0.7,1.6-1.6v-7h0.2
		v-30.7h17.3l28.9,38.7c0.3,0.4,0.8,0.7,1.3,0.7h16.4c0.6,0,1.2-0.3,1.5-0.9c0.3-0.6,0.2-1.2-0.2-1.7L347.5,131z M310.6,115.6V92.3
		h28.6c11.5,0,15.6,6,15.6,11.5c0,5.4-4.1,11.8-15.6,11.8H310.6z"/>
</g>
</svg>
